<svg width="128" height="117" viewBox="0 0 128 117" fill="none" xmlns="http://www.w3.org/2000/svg">
<path d="M39.3112 70.0876L211.34 8.07739L191.777 54.4664L19.7571 116.477L39.3112 70.0876Z" fill="url(#paint0_linear_148_5)"/>
<path d="M39.3116 70.0879L0 62.0102L172.02 0L211.34 8.0776L39.3116 70.0879Z" fill="url(#paint1_linear_148_5)"/>
<path d="M39.3112 70.0876L211.34 8.07739L191.777 54.4664L19.7571 116.477L39.3112 70.0876Z" fill="url(#paint2_linear_148_5)"/>
<path d="M39.3116 70.0879L0 62.0102L172.02 0L211.34 8.0776L39.3116 70.0879Z" fill="url(#paint3_linear_148_5)"/>
<path d="M39.3112 70.0876L211.34 8.07739L191.777 54.4664L19.7571 116.477L39.3112 70.0876Z" fill="url(#paint4_radial_148_5)"/>
<path d="M39.3116 70.0879L0 62.0102L172.02 0L211.34 8.0776L39.3116 70.0879Z" fill="url(#paint5_radial_148_5)"/>
<path d="M19.7575 116.477L0 62.0103L39.3116 70.0879L19.7575 116.477Z" fill="url(#paint6_linear_148_5)"/>
<defs>
<linearGradient id="paint0_linear_148_5" x1="197.769" y1="8.31586" x2="59.852" y2="121.778" gradientUnits="userSpaceOnUse">
<stop stop-color="#FE893E"/>
<stop offset="1" stop-color="#FFAD44"/>
</linearGradient>
<linearGradient id="paint1_linear_148_5" x1="155.564" y1="-35.7271" x2="67.6336" y2="134.458" gradientUnits="userSpaceOnUse">
<stop stop-color="#FFE067"/>
<stop offset="1" stop-color="#FEC34A"/>
</linearGradient>
<linearGradient id="paint2_linear_148_5" x1="197.769" y1="8.31586" x2="59.852" y2="121.778" gradientUnits="userSpaceOnUse">
<stop stop-color="#FE893E"/>
<stop offset="1" stop-color="#FFAD44"/>
</linearGradient>
<linearGradient id="paint3_linear_148_5" x1="155.564" y1="-35.7271" x2="67.6336" y2="134.458" gradientUnits="userSpaceOnUse">
<stop stop-color="#FFE067"/>
<stop offset="1" stop-color="#FEC34A"/>
</linearGradient>
<radialGradient id="paint4_radial_148_5" cx="0" cy="0" r="1" gradientUnits="userSpaceOnUse" gradientTransform="translate(149.533 39.2454) scale(65.3372 65.3372)">
<stop offset="0.0981" stop-color="#AC6C4B"/>
<stop offset="0.6454" stop-color="#E0C7BB" stop-opacity="0.3932"/>
<stop offset="1" stop-color="white" stop-opacity="0"/>
</radialGradient>
<radialGradient id="paint5_radial_148_5" cx="0" cy="0" r="1" gradientUnits="userSpaceOnUse" gradientTransform="translate(147.154 45.1846) scale(65.3375 65.3375)">
<stop offset="0.0981" stop-color="#AC6C4B"/>
<stop offset="0.6454" stop-color="#E0C7BB" stop-opacity="0.3932"/>
<stop offset="1" stop-color="white" stop-opacity="0"/>
</radialGradient>
<linearGradient id="paint6_linear_148_5" x1="36.4936" y1="96.8479" x2="6.78334" y2="76.0641" gradientUnits="userSpaceOnUse">
<stop stop-color="#FE893E"/>
<stop offset="1" stop-color="#FFAD44"/>
</linearGradient>
</defs>
</svg>
