<svg width="81" height="72" viewBox="0 0 81 72" fill="none" xmlns="http://www.w3.org/2000/svg">
<path d="M32.4322 0L65.5712 49.3259C66.4809 50.6832 63.8601 54.0332 59.7232 56.8128C55.5862 59.5925 51.4925 60.7476 50.5829 59.3975L17.4438 10.0717L32.4322 0Z" fill="url(#paint0_linear_148_4)"/>
<path d="M1.33617 16.6995L12.4764 19.2986C8.45492 33.9549 17.5808 48.7699 32.8219 52.3221C43.796 54.8707 54.9939 50.8998 61.9105 43.0013C64.6035 39.9257 66.6395 36.2652 67.773 32.1571L78.9132 34.749C77.3321 40.5105 74.4658 45.6582 70.6898 49.9684C60.9864 61.0509 45.276 66.6246 29.8762 63.0435C8.49102 58.0546 -4.31695 37.2688 1.33617 16.6995Z" fill="url(#paint1_linear_148_4)"/>
<path d="M70.6905 49.954C60.987 61.0364 45.2767 66.6101 29.8768 63.0291C14.7801 59.5202 3.96481 48.1346 0.88916 34.5107L2.67246 42.402C5.74811 56.0258 16.5634 67.4115 31.6601 70.9203C47.06 74.5014 62.7703 68.9277 72.4737 57.8452C76.2497 53.535 79.116 48.3873 80.6971 42.6258L78.9138 34.7346C77.3327 40.496 74.4664 45.6437 70.6905 49.954Z" fill="url(#paint2_linear_148_4)"/>
<defs>
<linearGradient id="paint0_linear_148_4" x1="49.7677" y1="25.6249" x2="35.4264" y2="35.6506" gradientUnits="userSpaceOnUse">
<stop stop-color="#FFAD44"/>
<stop offset="0.224" stop-color="#FFCC44"/>
<stop offset="1" stop-color="#FE893E"/>
</linearGradient>
<linearGradient id="paint1_linear_148_4" x1="26.707" y1="-1.16245" x2="87.9253" y2="166.855" gradientUnits="userSpaceOnUse">
<stop stop-color="#E0BDF7"/>
<stop offset="1" stop-color="#8757B0"/>
</linearGradient>
<linearGradient id="paint2_linear_148_4" x1="67.2899" y1="73.8952" x2="19.1397" y2="15.3126" gradientUnits="userSpaceOnUse">
<stop stop-color="#AB83C9"/>
<stop offset="1" stop-color="#7E55A1"/>
</linearGradient>
</defs>
</svg>
